# xmcd CD database file
#
# Track frame offsets:
#	150
#	13442
#	41467
#	61312
#	75460
#	88530
#	104430
#	116072
#	146417
#	157402
#	176457
#	192512
#	208700
#	231430
#	249725
#	262485
#	284460
#	299882
#	318160
#
# Disc length: 4522 seconds
#
# Revision: 7
# Processed by: cddbd v1.5.1PL2 Copyright (c) Steve Scherf et al.
# Submitted via: CDex 1.51
#
DISCID=2f11a813
DTITLE=JOHN PIZZARELLI - THE BEST OF JOHN PIZZARELLI
DYEAR=2002
DGENRE=Jazz
TTITLE0=THREE LITTLE WORDS
TTITLE1=S'WONDERFUL
TTITLE2=ALL OF ME
TTITLE3=YOU STEPPED OUT OF A DREAM
TTITLE4=JUST YOU,JUST ME
TTITLE5=SWEET LORRAINE
TTITLE6=IT'S ONLY A PAPER MOON
TTITLE7=ROUTE 66
TTITLE8=WHAT CAN I SAY AFTER I SAY I'M SORRY
TTITLE9=THEY CAN'T TAKE THAT AWAY FROM ME
TTITLE10=COQUETTE
TTITLE11=CAN'T BUY ME LOVE
TTITLE12=ELEANOR RIGBY
TTITLE13=OH DARLING
TTITLE14=DREAM
TTITLE15=AVALON
TTITLE16=RHYTHM IS OUR BUSINESS
TTITLE17=THEN I'LL BE TIRED OF YOU
TTITLE18=STRAIGHTEN UP AND FLY RIGHT
EXTD=YEAR: 2002
EXTT0=
EXTT1=
EXTT2=
EXTT3=
EXTT4=
EXTT5=
EXTT6=
EXTT7=
EXTT8=
EXTT9=
EXTT10=
EXTT11=
EXTT12=
EXTT13=
EXTT14=
EXTT15=
EXTT16=
EXTT17=
EXTT18=
PLAYORDER=
